<svg width="79" height="96" viewBox="0 0 79 96" fill="none" xmlns="http://www.w3.org/2000/svg">
<path d="M22.5734 49.1129C23.5926 49.4554 68.0985 49.1129 68.0985 49.1129C68.0985 49.1129 68.9477 47.2667 70.137 44.5347C64.5441 41.9376 59.3532 43.018 54.2887 44.0722C51.6226 44.6272 48.9915 45.1749 46.3552 45.1749C43.1028 45.1749 39.8812 43.1602 36.4535 41.0166C31.825 38.1221 26.8207 34.9926 20.8576 36.2714C20.8822 36.6168 20.9076 36.9595 20.9336 37.2987C21.1297 39.8532 21.3647 42.2165 21.6021 44.1475C21.9639 47.0918 22.3311 49.0315 22.5734 49.1129Z" fill="#D4C3E6"/>
<path fill-rule="evenodd" clip-rule="evenodd" d="M10.1729 24.9709C12.3812 23.0874 20.4406 26.1694 20.4406 26.1694C20.4255 23.7592 20.4867 21.4709 20.6526 19.4918C20.6526 19.4918 10.003 15.725 5.92613 18.8069C1.84921 21.8889 -0.0192407 31.9909 4.73699 38.1548C9.49322 44.3188 21.6021 44.1475 21.6021 44.1475C21.3647 42.2165 21.1297 39.8532 20.9336 37.2987C20.9336 37.2987 12.2114 37.8124 10.1729 34.2168C8.13448 30.6211 7.96461 26.8543 10.1729 24.9709Z" fill="#D4C3E6"/>
<path d="M27.1436 2.30777C23.5639 4.85787 29.9117 12.4317 29.9117 12.4317C29.9117 12.4317 39.3447 10.2976 38.1586 6.01433C36.9725 1.73105 31.9566 6.25784 31.9566 6.25784C31.9566 6.25784 30.7233 -0.242334 27.1436 2.30777Z" fill="#F4E3B7" stroke="#454545" stroke-width="2"/>
<path fill-rule="evenodd" clip-rule="evenodd" d="M22.5734 12.643C23.8302 11.8829 28.8209 11.9476 35.3137 12.5441C50.7609 13.9633 74.7097 18.3929 77.1017 21.8889C80.499 26.8542 73.3984 37.0434 70.137 44.5347C64.5441 41.9376 59.3532 43.018 54.2887 44.0722C51.6226 44.6272 48.9915 45.1749 46.3552 45.1749C43.1028 45.1749 39.8812 43.1602 36.4535 41.0166C31.825 38.1221 26.8207 34.9926 20.8577 36.2714C20.6246 32.9963 20.4612 29.4687 20.4406 26.1694C20.4406 26.1694 12.3812 23.0874 10.1729 24.9709C7.96462 26.8543 8.13449 30.6211 10.1729 34.2168C12.2114 37.8124 20.9336 37.2987 20.9336 37.2987C21.1297 39.8532 21.3647 42.2165 21.6021 44.1475C21.6021 44.1475 9.49323 44.3188 4.737 38.1548C-0.0192293 31.9909 1.84922 21.8889 5.92614 18.8069C10.0031 15.725 20.6527 19.4918 20.6527 19.4918C20.9371 16.1001 21.5295 13.2743 22.5734 12.643Z" fill="#FAFAFA"/>
<path d="M20.8577 36.2714C21.0673 39.2179 21.3332 41.96 21.6021 44.1475M20.8577 36.2714C20.6246 32.9963 20.4612 29.4687 20.4406 26.1694M20.8577 36.2714C26.8207 34.9926 31.825 38.1221 36.4535 41.0166C39.8812 43.1602 43.1028 45.1749 46.3552 45.1749C48.9915 45.1749 51.6226 44.6272 54.2887 44.0722C59.3532 43.018 64.5441 41.9376 70.137 44.5347M70.137 44.5347C68.9477 47.2667 68.0986 49.1129 68.0986 49.1129C68.0986 49.1129 23.5926 49.4554 22.5734 49.1129C22.3311 49.0315 21.9639 47.0918 21.6021 44.1475M70.137 44.5347C73.3984 37.0434 80.499 26.8542 77.1017 21.8889C74.7097 18.3929 50.7609 13.9633 35.3137 12.5441C28.8209 11.9476 23.8302 11.8829 22.5734 12.643C21.5295 13.2743 20.9371 16.1001 20.6527 19.4918M20.6527 19.4918C20.6527 19.4918 10.0031 15.725 5.92614 18.8069C1.84922 21.8889 -0.0192292 31.9909 4.737 38.1548C9.49323 44.3188 21.6021 44.1475 21.6021 44.1475M20.6527 19.4918C20.4867 21.4709 20.4255 23.7592 20.4406 26.1694M21.6021 44.1475C21.3647 42.2165 21.1297 39.8532 20.9336 37.2987C20.9336 37.2987 12.2114 37.8124 10.1729 34.2168C8.13449 30.6211 7.96462 26.8543 10.1729 24.9709C12.3812 23.0874 20.4406 26.1694 20.4406 26.1694" stroke="#4A4A4A" stroke-width="2"/>
<path fill-rule="evenodd" clip-rule="evenodd" d="M35.2317 40.3035L36.4535 49.2644C35.9311 45.7827 35.5305 42.8644 35.2317 40.3035Z" fill="#333333" fill-opacity="0.05"/>
<path d="M22.5734 12.643C21.5295 13.2743 20.9371 16.1001 20.6527 19.4918C20.4867 21.4709 20.4255 23.7592 20.4406 26.1694L20.8456 36.1996C20.8456 36.1996 20.8575 36.2693 20.8577 36.2714C25.5285 35.2697 32.4508 38.7486 35.2317 40.3035C34.1168 30.749 34.4184 26.1691 35.097 15.8628C35.1657 14.819 35.2383 13.7165 35.3137 12.5441C28.8209 11.9476 23.8302 11.8829 22.5734 12.643Z" fill="#333333" fill-opacity="0.05"/>
<path fill-rule="evenodd" clip-rule="evenodd" d="M35.2317 40.3035C32.4508 38.7486 25.5285 35.2697 20.8577 36.2714L20.9283 37.2273C21.1663 40.0858 21.8796 47.994 22.5734 49.1129C22.9237 49.2306 28.4127 49.2674 35.466 49.265C35.7919 49.2649 36.1212 49.2647 36.4535 49.2644C35.9311 45.7827 35.5305 42.8644 35.2317 40.3035Z" fill="#333333" fill-opacity="0.05"/>
<path fill-rule="evenodd" clip-rule="evenodd" d="M20.8577 36.2714C20.8575 36.2693 20.8456 36.1996 20.8456 36.1996C20.8456 36.1996 20.875 36.5866 20.9283 37.2273L20.8577 36.2714Z" fill="#333333" fill-opacity="0.05"/>
<path d="M21.6021 44.1475C21.3647 42.2165 21.1297 39.8532 20.9336 37.2987C20.9336 37.2987 18.202 37.4596 15.4389 36.9711C15.4389 37.9822 15.9485 41.2368 16.2882 43.7025C19.2893 44.1802 21.6021 44.1475 21.6021 44.1475Z" fill="#333333" fill-opacity="0.05"/>
<path d="M20.4406 26.1694C20.4255 23.7592 20.4867 21.4709 20.6527 19.4918C20.6527 19.4918 18.1459 18.6051 15.0992 18.0441C14.4197 19.1494 14.9293 21.5464 15.9485 24.821C18.3153 25.3567 20.4406 26.1694 20.4406 26.1694Z" fill="#333333" fill-opacity="0.05"/>
<g filter="url(#filter0_f)">
<ellipse rx="5.77648" ry="4.10866" transform="matrix(0.990082 0.140491 -0.138326 0.990387 35.8235 31.4772)" fill="#D4C3E6"/>
</g>
<g filter="url(#filter1_f)">
<ellipse rx="5.77647" ry="4.10866" transform="matrix(0.990082 0.140491 -0.138326 0.990387 64.1941 36.7004)" fill="#D4C3E6"/>
</g>
<path d="M47.9158 31.0039C47.6543 30.5174 47.048 30.3349 46.5615 30.5964C46.0751 30.8578 45.8926 31.4641 46.154 31.9506L47.9158 31.0039ZM54.0773 33.3139C54.5243 32.9895 54.6237 32.3642 54.2993 31.9172C53.9749 31.4702 53.3496 31.3708 52.9026 31.6952L54.0773 33.3139ZM47.0349 31.4772C46.154 31.9506 46.1543 31.9511 46.1546 31.9516C46.1547 31.9518 46.155 31.9523 46.1552 31.9527C46.1556 31.9535 46.1561 31.9543 46.1565 31.9552C46.1575 31.957 46.1586 31.9591 46.1599 31.9614C46.1624 31.9659 46.1655 31.9715 46.1692 31.9781C46.1765 31.9912 46.1862 32.0081 46.1982 32.0285C46.2221 32.0693 46.2554 32.1242 46.298 32.1903C46.3831 32.322 46.5069 32.5004 46.6696 32.7011C46.9913 33.0977 47.4861 33.6073 48.1599 34.0068C48.843 34.4118 49.7134 34.7045 50.7495 34.6425C51.7823 34.5806 52.8957 34.1715 54.0773 33.3139L52.9026 31.6952C51.9609 32.3786 51.2057 32.6116 50.63 32.646C50.0577 32.6803 49.5798 32.5235 49.1799 32.2865C48.7708 32.0439 48.4481 31.7188 48.223 31.4413C48.1123 31.3048 48.0304 31.1862 47.9781 31.1053C47.9521 31.065 47.9338 31.0346 47.9233 31.0167C47.9181 31.0078 47.9148 31.002 47.9136 30.9998C47.9129 30.9986 47.9128 30.9984 47.9132 30.999C47.9133 30.9994 47.9137 30.9999 47.9141 31.0007C47.9143 31.0011 47.9146 31.0016 47.9148 31.0021C47.915 31.0024 47.9152 31.0028 47.9153 31.0029C47.9155 31.0034 47.9158 31.0039 47.0349 31.4772Z" fill="#4A4A4A"/>
<path d="M42.2781 28.208C42.1443 26.9836 41.3648 25.023 39.7304 24.6284C38.0959 24.2338 36.8426 27.1967 36.8426 27.1967" stroke="#4A4A4A" stroke-width="2" stroke-linecap="round"/>
<path d="M64.5315 31.8197C64.3732 30.5932 63.9568 29.3186 62.1533 28.9089C60.3498 28.4993 59.2872 31.2732 59.2872 31.2732" stroke="#4A4A4A" stroke-width="2" stroke-linecap="round"/>
<path fill-rule="evenodd" clip-rule="evenodd" d="M18.1569 56.4754C6.09594 55.7905 1 56.4754 1 65.0364C1.81754 77.8298 2.35879 80.6175 22.7812 80.6175C24.4263 84.8568 26.5418 87.8087 29.1983 87.8087H32.2559C32.0861 90.2058 32.4598 95 35.3136 95H56.5473C57.3967 94.9429 59.0954 94.3836 59.0954 92.6029V87.8087C61.7567 88.0941 67.521 86.4047 69.2876 77.3643C69.6136 75.6959 69.9447 74.0291 70.2724 72.3989C71.7205 65.1956 73.104 58.7077 73.7042 55.9617C74.1572 53.6217 73.9081 48.9417 69.2876 48.9417H31.0668H23.5926C18.1569 48.9417 17.5448 50.5855 18.1569 56.4754ZM16.5294 62.4293C17.3132 62.4491 18.0657 62.4681 18.7452 62.4681C19.1616 65.8408 19.7595 69.5589 20.5617 73.0838C20.627 73.3705 20.6936 73.656 20.7616 73.9399H11.5318C7.28503 73.9399 7.28503 66.9199 7.62477 64.3515C7.90788 62.2113 12.6104 62.3302 16.5294 62.4293Z" fill="#79A3C9"/>
<path fill-rule="evenodd" clip-rule="evenodd" d="M18.1569 56.4754C6.09594 55.7905 1 56.4754 1 65.0364C1.81754 77.8298 2.35879 80.6175 22.7812 80.6175C22.006 78.6195 21.3352 76.3355 20.7616 73.9399L20.6085 73.0693C26.0694 71.3842 29.8658 72.4377 33.6798 73.9225C34.2211 74.1332 34.7627 74.3526 35.3095 74.5741C38.6567 75.93 42.1974 77.3643 47.0346 77.3643C51.9048 77.3643 53.9862 76.0073 56.061 74.6548C58.7624 72.8936 61.4525 71.1399 70.2724 72.3989C71.7205 65.1956 73.104 58.7077 73.7042 55.9617C74.1572 53.6217 73.9081 48.9417 69.2876 48.9417H31.0668H23.5926C18.1569 48.9417 17.5448 50.5855 18.1569 56.4754ZM20.7616 73.9399C20.6936 73.656 20.627 73.3705 20.5617 73.0838C19.7595 69.5589 19.1616 65.8408 18.7452 62.4681C18.0657 62.4681 17.3132 62.4491 16.5294 62.4293C12.6104 62.3302 7.90788 62.2113 7.62477 64.3515C7.28503 66.9199 7.28503 73.9399 11.5318 73.9399H20.7616ZM32.2559 87.8087H38.711H59.0954V92.6029C59.0954 94.3836 57.3967 94.9429 56.5473 95H34.804C31.9502 95 32.2559 92.6029 32.2559 87.8087Z" fill="#9ADEFE"/>
<path d="M18.1569 56.4754C6.09594 55.7905 1 56.4754 1 65.0364C1.81754 77.8298 2.35879 80.6175 22.7813 80.6175M18.1569 56.4754C17.5448 50.5855 18.1569 48.9417 23.5926 48.9417M18.1569 56.4754C18.4704 60.9239 19.2379 67.2669 20.5617 73.0838M22.7813 80.6175C24.4262 84.8568 26.5418 87.8087 29.1983 87.8087M22.7813 80.6175C22.006 78.6195 21.3352 76.3355 20.7616 73.9399M18.7452 62.4681L20.6085 73.0693M18.7452 62.4681C19.1616 65.8408 19.7595 69.5589 20.5617 73.0838M18.7452 62.4681C18.0657 62.4681 17.3132 62.4491 16.5294 62.4293C12.6104 62.3302 7.90788 62.2113 7.62477 64.3515C7.28503 66.9199 7.28503 73.9399 11.5318 73.9399M11.5318 73.9399C14.9292 73.9399 19.0062 73.9399 20.7616 73.9399M11.5318 73.9399H20.7616M20.7616 73.9399L20.6085 73.0693M20.7616 73.9399C20.6936 73.656 20.627 73.3705 20.5617 73.0838M29.1983 87.8087C30.09 87.8087 31.121 87.8087 32.2559 87.8087M29.1983 87.8087C25.1414 87.8087 22.3462 80.9243 20.5617 73.0838M29.1983 87.8087H32.2559M59.0954 87.8087C61.7567 88.0941 67.521 86.4047 69.2876 77.3643C69.6136 75.6959 69.9447 74.0291 70.2724 72.3989M59.0954 87.8087C59.0954 88.6648 59.0954 90.8222 59.0954 92.6029M59.0954 87.8087C54.4532 87.8087 45.9696 87.8087 38.711 87.8087M59.0954 87.8087V92.6029M59.0954 87.8087H38.711M69.2876 48.9417C73.9081 48.9417 74.1572 53.6217 73.7042 55.9617C73.104 58.7077 71.7205 65.1956 70.2724 72.3989M69.2876 48.9417C65.6985 48.9417 43.3937 48.9417 31.0668 48.9417M69.2876 48.9417H31.0668M23.5926 48.9417C24.8059 48.9417 27.5244 48.9417 31.0668 48.9417M23.5926 48.9417H31.0668M32.2559 87.8087C32.2559 92.6029 31.9502 95 34.804 95M32.2559 87.8087C34.1685 87.8087 36.3764 87.8087 38.711 87.8087M32.2559 87.8087H38.711M34.804 95C37.6578 95 50.6585 95 56.5473 95M34.804 95H56.5473M56.5473 95C57.3967 94.9429 59.0954 94.3836 59.0954 92.6029M20.5617 73.0838C20.5773 73.0789 20.593 73.0741 20.6085 73.0693M70.2724 72.3989C61.4525 71.1399 58.7624 72.8936 56.061 74.6548C53.9862 76.0073 51.9048 77.3643 47.0346 77.3643C42.1974 77.3643 38.6567 75.93 35.3095 74.5741C34.7627 74.3526 34.2211 74.1332 33.6798 73.9225C29.8658 72.4377 26.0694 71.3842 20.6085 73.0693" stroke="#4A4A4A" stroke-width="2"/>
<path fill-rule="evenodd" clip-rule="evenodd" d="M18.1569 56.4754C18.2744 58.1436 18.4558 60.0782 18.7065 62.1515C18.7192 62.2567 18.7321 62.3623 18.7452 62.4681C19.1616 65.8408 19.7595 69.5589 20.5617 73.0838C20.627 73.3705 20.6936 73.656 20.7616 73.9399L20.6085 73.0693C26.0694 71.3842 29.8658 72.4377 33.6798 73.9225C31.1649 63.7404 30.796 53.8552 31.0668 48.9417H23.5926C18.1569 48.9417 17.5448 50.5855 18.1569 56.4754Z" fill="#333333" fill-opacity="0.05"/>
<path d="M29.1983 87.8087H32.2559H38.711C36.4727 83.4267 34.8456 78.6427 33.6798 73.9225C29.8658 72.4377 26.0694 71.3842 20.6085 73.0693L20.7616 73.9399C21.3325 76.3244 21.9997 78.5982 22.7704 80.5896C22.774 80.5989 22.7776 80.6082 22.7812 80.6175C24.4263 84.8568 26.5418 87.8087 29.1983 87.8087Z" fill="#333333" fill-opacity="0.05"/>
<path d="M18.1569 56.4754C16.0156 56.3538 14.0938 56.2754 12.3811 56.2766C13.0606 58.5024 12.0957 59.5905 13.5702 62.4293C14.3899 62.4318 15.7307 62.4091 16.5294 62.4293C17.3132 62.4491 18.0657 62.4681 18.7452 62.4681C18.7321 62.3623 18.7192 62.2567 18.7065 62.1515C18.4558 60.0782 18.2744 58.1436 18.1569 56.4754Z" fill="#333333" fill-opacity="0.05"/>
<path d="M20.7616 73.9399H15.7785C15.7499 75.9867 16.7978 78.9053 17.6471 80.5415C19.2015 80.594 20.9077 80.6175 22.7812 80.6175L22.7704 80.5896C21.9997 78.5982 21.3325 76.3244 20.7616 73.9399Z" fill="#333333" fill-opacity="0.05"/>
<g filter="url(#filter2_f)">
<path d="M36.8424 64.1803C36.8424 66.3553 34.4087 68.1184 31.4065 68.1184C28.4044 68.1184 25.9707 66.3553 25.9707 64.1803C25.9707 62.0054 28.4044 60.2423 31.4065 60.2423C34.4087 60.2423 36.8424 62.0054 36.8424 64.1803Z" fill="#F7B8B5"/>
</g>
<g filter="url(#filter3_f)">
<ellipse cx="60.2845" cy="64.1803" rx="5.43584" ry="3.93807" fill="#F7B8B5"/>
</g>
<path d="M43.6372 61.9545C43.9565 62.7892 44.9962 64.1803 47.2045 64.3515C49.4128 64.5228 50.432 62.1257 50.432 62.1257" stroke="#4A4A4A" stroke-width="2" stroke-linecap="round"/>
<ellipse cx="34.4642" cy="59.2149" rx="1.35896" ry="2.39709" fill="#4A4A4A"/>
<ellipse cx="57.2269" cy="58.8725" rx="1.35896" ry="2.39708" fill="#4A4A4A"/>
<defs>
<filter id="filter0_f" x="29.0757" y="26.3271" width="13.4956" height="10.3002" filterUnits="userSpaceOnUse" color-interpolation-filters="sRGB">
<feFlood flood-opacity="0" result="BackgroundImageFix"/>
<feBlend mode="normal" in="SourceGraphic" in2="BackgroundImageFix" result="shape"/>
<feGaussianBlur stdDeviation="0.5" result="effect1_foregroundBlur"/>
</filter>
<filter id="filter1_f" x="57.4463" y="31.5503" width="13.4956" height="10.3002" filterUnits="userSpaceOnUse" color-interpolation-filters="sRGB">
<feFlood flood-opacity="0" result="BackgroundImageFix"/>
<feBlend mode="normal" in="SourceGraphic" in2="BackgroundImageFix" result="shape"/>
<feGaussianBlur stdDeviation="0.5" result="effect1_foregroundBlur"/>
</filter>
<filter id="filter2_f" x="24.9707" y="59.2423" width="12.8717" height="9.87613" filterUnits="userSpaceOnUse" color-interpolation-filters="sRGB">
<feFlood flood-opacity="0" result="BackgroundImageFix"/>
<feBlend mode="normal" in="SourceGraphic" in2="BackgroundImageFix" result="shape"/>
<feGaussianBlur stdDeviation="0.5" result="effect1_foregroundBlur"/>
</filter>
<filter id="filter3_f" x="53.8486" y="59.2423" width="12.8717" height="9.87613" filterUnits="userSpaceOnUse" color-interpolation-filters="sRGB">
<feFlood flood-opacity="0" result="BackgroundImageFix"/>
<feBlend mode="normal" in="SourceGraphic" in2="BackgroundImageFix" result="shape"/>
<feGaussianBlur stdDeviation="0.5" result="effect1_foregroundBlur"/>
</filter>
</defs>
</svg>
