<svg width="231" height="277" viewBox="0 0 231 277" fill="none" xmlns="http://www.w3.org/2000/svg">
<path d="M65.4994 140.5C68.4992 141.5 199.499 140.5 199.499 140.5C199.499 140.5 201.999 135.109 205.499 127.131C189.037 119.547 173.758 122.702 158.851 125.78C151.004 127.401 143.259 129 135.499 129C125.926 129 116.444 123.117 106.354 116.857C92.7308 108.404 78.0011 99.2657 60.4492 103C60.5215 104.009 60.5962 105.009 60.6728 106C61.2499 113.46 61.9418 120.361 62.6404 126C63.7055 134.598 64.7861 140.262 65.4994 140.5Z" fill="#D4C3E6"/>
<path fill-rule="evenodd" clip-rule="evenodd" d="M28.9995 70.0001C35.4995 64.5001 59.2215 73.5001 59.2215 73.5001C59.1772 66.4619 59.3573 59.7794 59.8458 54.0001C59.8458 54.0001 28.4995 43.0001 16.4994 52.0001C4.4993 61.0001 -1.00035 90.5001 12.9993 108.5C26.9989 126.5 62.6404 126 62.6404 126C61.9418 120.361 61.2499 113.46 60.6728 106C60.6728 106 34.9995 107.5 28.9995 97.0001C22.9995 86.5001 22.4995 75.5001 28.9995 70.0001Z" fill="#D4C3E6"/>
<path d="M78.9514 3.81896C68.4148 11.2658 87.0991 33.3831 87.0991 33.3831C87.0991 33.3831 114.864 27.151 111.373 14.6429C107.882 2.13481 93.118 15.354 93.118 15.354C93.118 15.354 89.4879 -3.62788 78.9514 3.81896Z" fill="#F4E3B7" stroke="#454545" stroke-width="4"/>
<path fill-rule="evenodd" clip-rule="evenodd" d="M65.4994 34C69.1986 31.7805 83.8886 31.9694 103 33.7113C148.467 37.8556 218.959 50.791 225.999 60.9999C235.999 75.4999 215.099 105.254 205.499 127.131C189.037 119.546 173.758 122.702 158.851 125.78C151.004 127.401 143.259 129 135.499 129C125.926 129 116.444 123.117 106.355 116.857C92.7308 108.404 78.0011 99.2656 60.4492 103C59.7634 93.4361 59.2822 83.1347 59.2216 73.5C59.2216 73.5 35.4995 64.5 28.9995 70C22.4995 75.5 22.9995 86.5 28.9995 97C34.9995 107.5 60.6728 106 60.6728 106C61.2499 113.46 61.9418 120.361 62.6404 126C62.6404 126 26.9989 126.5 12.9993 108.5C-1.00032 90.5 4.49933 61 16.4994 52C28.4995 43 59.8458 54 59.8458 54C60.6831 44.0954 62.4267 35.8436 65.4994 34Z" fill="#FAFAFA"/>
<path d="M60.4492 103C61.0663 111.604 61.849 119.612 62.6404 126M60.4492 103C59.7634 93.4361 59.2822 83.1347 59.2216 73.5M60.4492 103C78.0011 99.2656 92.7308 108.404 106.355 116.857C116.444 123.117 125.926 129 135.499 129C143.259 129 151.004 127.401 158.851 125.78C173.758 122.702 189.037 119.546 205.499 127.131M205.499 127.131C201.999 135.109 199.499 140.5 199.499 140.5C199.499 140.5 68.4993 141.5 65.4994 140.5C64.7862 140.262 63.7055 134.598 62.6404 126M205.499 127.131C215.099 105.254 235.999 75.4999 225.999 60.9999C218.959 50.791 148.467 37.8556 103 33.7113C83.8886 31.9694 69.1986 31.7805 65.4994 34C62.4267 35.8436 60.6831 44.0954 59.8458 54M59.8458 54C59.8458 54 28.4995 43 16.4994 52C4.49933 61 -1.00032 90.5 12.9993 108.5C26.9989 126.5 62.6404 126 62.6404 126M59.8458 54C59.3573 59.7793 59.1772 66.4618 59.2216 73.5M62.6404 126C61.9418 120.361 61.2499 113.46 60.6728 106C60.6728 106 34.9995 107.5 28.9995 97C22.9995 86.5 22.4995 75.5 28.9995 70C35.4995 64.5 59.2216 73.5 59.2216 73.5" stroke="#4A4A4A" stroke-width="4"/>
<path fill-rule="evenodd" clip-rule="evenodd" d="M102.758 114.775L106.355 140.942C104.817 130.775 103.638 122.253 102.758 114.775Z" fill="#333333" fill-opacity="0.05"/>
<path d="M65.4994 34C62.4267 35.8436 60.6831 44.0954 59.8458 54C59.3573 59.7793 59.1772 66.4618 59.2216 73.5L60.4136 102.79C60.4136 102.79 60.4488 102.994 60.4492 103C74.1974 100.075 94.5727 110.234 102.758 114.775C99.4766 86.8736 100.364 73.4993 102.362 43.4025C102.564 40.3544 102.778 37.1348 103 33.7113C83.8886 31.9694 69.1986 31.7805 65.4994 34Z" fill="#333333" fill-opacity="0.05"/>
<path fill-rule="evenodd" clip-rule="evenodd" d="M102.758 114.775C94.5727 110.234 74.1974 100.075 60.4492 103L60.6573 105.792C61.3577 114.139 63.4572 137.232 65.4994 140.5C66.5306 140.844 82.6868 140.951 103.448 140.944C104.407 140.944 105.376 140.943 106.355 140.942C104.817 130.775 103.638 122.253 102.758 114.775Z" fill="#333333" fill-opacity="0.05"/>
<path fill-rule="evenodd" clip-rule="evenodd" d="M60.4492 103C60.4488 102.994 60.4136 102.79 60.4136 102.79C60.4136 102.79 60.5003 103.921 60.6573 105.792L60.4492 103Z" fill="#333333" fill-opacity="0.05"/>
<path d="M62.6404 126C61.9418 120.361 61.2499 113.46 60.6728 106C60.6728 106 52.6326 106.47 44.4995 105.043C44.4995 107.996 45.9995 117.5 46.9995 124.701C55.8329 126.095 62.6404 126 62.6404 126Z" fill="#333333" fill-opacity="0.05"/>
<path d="M59.2216 73.5C59.1772 66.4618 59.3573 59.7793 59.8458 54C59.8458 54 52.4673 51.4107 43.4995 49.7725C41.4995 53 42.9995 60 45.9995 69.5624C52.9661 71.1267 59.2216 73.5 59.2216 73.5Z" fill="#333333" fill-opacity="0.05"/>
<g filter="url(#filter0_f_253062_1252)">
<ellipse cx="104.5" cy="89" rx="17" ry="12" transform="rotate(8.01338 104.5 89)" fill="#D4C3E6"/>
</g>
<g filter="url(#filter1_f_253062_1252)">
<ellipse cx="188.006" cy="104.253" rx="17" ry="12" transform="rotate(8.01338 188.006 104.253)" fill="#D4C3E6"/>
</g>
<path d="M137.5 89C137.5 89 144 101 156.5 92" stroke="#4A4A4A" stroke-width="4" stroke-linecap="round"/>
<path d="M123.499 79.4531C123.105 75.8779 120.81 70.1523 116 69.0001C111.189 67.8478 107.5 76.5001 107.5 76.5001" stroke="#4A4A4A" stroke-width="4" stroke-linecap="round"/>
<path d="M189 90C188.534 86.4184 187.308 82.6963 182 81.5C176.691 80.3037 173.563 88.4042 173.563 88.4042" stroke="#4A4A4A" stroke-width="4" stroke-linecap="round"/>
<path fill-rule="evenodd" clip-rule="evenodd" d="M52.5 162C16.9995 160 2 162 2 187C4.40636 224.359 5.99951 232.5 66.1115 232.5C70.9534 244.88 77.1804 253.5 84.9995 253.5H93.9995C93.4995 260.5 94.5995 274.5 103 274.5H165.5C168 274.333 173 272.7 173 267.5V253.5C180.833 254.333 197.8 249.4 203 223C203.959 218.128 204.934 213.26 205.898 208.5C210.161 187.465 214.233 168.519 216 160.5C217.333 153.667 216.6 140 203 140H90.4995H68.4995C52.5 140 50.6985 144.8 52.5 162ZM47.7097 179.387C50.0167 179.444 52.2315 179.5 54.2316 179.5C55.4572 189.349 57.2172 200.207 59.5785 210.5C59.7706 211.337 59.9666 212.171 60.1667 213H32.9995C20.4995 213 20.4995 192.5 21.4995 185C22.3328 178.75 36.1745 179.097 47.7097 179.387Z" fill="#79A3C9"/>
<path fill-rule="evenodd" clip-rule="evenodd" d="M52.5 162C16.9995 160 2 162 2 187C4.40636 224.359 5.99951 232.5 66.1115 232.5C63.8295 226.665 61.8551 219.996 60.1667 213L59.7163 210.458C75.79 205.537 86.9642 208.613 98.1905 212.949C99.7838 213.565 101.378 214.205 102.988 214.852C112.84 218.812 123.262 223 137.5 223C151.834 223 157.961 219.037 164.068 215.088C172.019 209.945 179.937 204.824 205.898 208.5C210.161 187.465 214.233 168.519 216 160.5C217.333 153.667 216.6 140 203 140H90.4995H68.4995C52.5 140 50.6985 144.8 52.5 162ZM60.1667 213C59.9666 212.171 59.7706 211.337 59.5785 210.5C57.2172 200.207 55.4572 189.349 54.2316 179.5C52.2315 179.5 50.0167 179.444 47.7097 179.387C36.1745 179.097 22.3328 178.75 21.4995 185C20.4995 192.5 20.4995 213 32.9995 213H60.1667ZM93.9995 253.5H113H173V267.5C173 272.7 168 274.333 165.5 274.5H101.5C93.0995 274.5 93.9995 267.5 93.9995 253.5Z" fill="#9ADEFE"/>
<path d="M52.5 162C16.9995 160 2 162 2 187C4.40636 224.359 5.99951 232.5 66.1115 232.5M52.5 162C50.6985 144.8 52.5 140 68.4995 140M52.5 162C53.4227 174.99 55.6818 193.514 59.5785 210.5M66.1115 232.5C70.9534 244.88 77.1804 253.5 84.9995 253.5M66.1115 232.5C63.8295 226.665 61.8551 219.996 60.1667 213M54.2316 179.5L59.7163 210.458M54.2316 179.5C55.4572 189.349 57.2172 200.207 59.5785 210.5M54.2316 179.5C52.2315 179.5 50.0167 179.444 47.7097 179.387C36.1745 179.097 22.3328 178.75 21.4995 185C20.4995 192.5 20.4995 213 32.9995 213M32.9995 213C42.9995 213 55.0001 213 60.1667 213M32.9995 213H60.1667M60.1667 213L59.7163 210.458M60.1667 213C59.9666 212.171 59.7706 211.337 59.5785 210.5M84.9995 253.5C87.6243 253.5 90.6589 253.5 93.9995 253.5M84.9995 253.5C73.0585 253.5 64.8308 233.396 59.5785 210.5M84.9995 253.5H93.9995M173 253.5C180.833 254.333 197.8 249.4 203 223C203.959 218.128 204.934 213.26 205.898 208.5M173 253.5C173 256 173 262.3 173 267.5M173 253.5C159.336 253.5 134.365 253.5 113 253.5M173 253.5V267.5M173 253.5H113M203 140C216.6 140 217.333 153.667 216 160.5C214.233 168.519 210.161 187.465 205.898 208.5M203 140C192.435 140 126.783 140 90.4995 140M203 140H90.4995M68.4995 140C72.071 140 80.0725 140 90.4995 140M68.4995 140H90.4995M93.9995 253.5C93.9995 267.5 93.0995 274.5 101.5 274.5M93.9995 253.5C99.629 253.5 106.128 253.5 113 253.5M93.9995 253.5H113M101.5 274.5C109.9 274.5 148.166 274.5 165.5 274.5M101.5 274.5H165.5M165.5 274.5C168 274.333 173 272.7 173 267.5M59.5785 210.5C59.6245 210.486 59.6704 210.472 59.7163 210.458M205.898 208.5C179.937 204.824 172.019 209.945 164.068 215.088C157.961 219.037 151.834 223 137.5 223C123.262 223 112.84 218.812 102.988 214.852C101.378 214.205 99.7838 213.565 98.1905 212.949C86.9642 208.613 75.79 205.537 59.7163 210.458" stroke="#4A4A4A" stroke-width="4"/>
<path fill-rule="evenodd" clip-rule="evenodd" d="M52.5 162C52.846 166.871 53.38 172.521 54.1177 178.576C54.1551 178.883 54.1931 179.191 54.2316 179.5C55.4572 189.349 57.2172 200.207 59.5785 210.5C59.7706 211.337 59.9666 212.171 60.1667 213L59.7163 210.458C75.79 205.537 86.9642 208.613 98.1905 212.949C90.7882 183.215 89.7024 154.348 90.4995 140H68.4995C52.5 140 50.6985 144.8 52.5 162Z" fill="#333333" fill-opacity="0.05"/>
<path d="M84.9995 253.5H93.9995H113C106.411 240.704 101.622 226.733 98.1905 212.949C86.9642 208.613 75.79 205.537 59.7163 210.458L60.1667 213C61.8473 219.963 63.8111 226.603 66.0797 232.419C66.0903 232.446 66.1009 232.473 66.1115 232.5C70.9534 244.88 77.1804 253.5 84.9995 253.5Z" fill="#333333" fill-opacity="0.05"/>
<path d="M52.5 162C46.1972 161.645 40.5407 161.416 35.4995 161.419C37.4995 167.919 34.6594 171.097 38.9995 179.387C41.4123 179.394 45.3589 179.328 47.7097 179.387C50.0167 179.444 52.2315 179.5 54.2316 179.5C54.1931 179.191 54.1551 178.883 54.1177 178.576C53.38 172.521 52.846 166.871 52.5 162Z" fill="#333333" fill-opacity="0.05"/>
<path d="M60.1667 213H45.4995C45.4151 218.977 48.4995 227.5 50.9995 232.278C55.5749 232.431 60.597 232.5 66.1115 232.5L66.0797 232.419C63.8111 226.603 61.8473 219.963 60.1667 213Z" fill="#333333" fill-opacity="0.05"/>
<g filter="url(#filter2_f_253062_1252)">
<path d="M107.5 184.5C107.5 190.851 100.336 196 91.4995 196C82.663 196 75.4995 190.851 75.4995 184.5C75.4995 178.149 82.663 173 91.4995 173C100.336 173 107.5 178.149 107.5 184.5Z" fill="#F7B8B5"/>
</g>
<g filter="url(#filter3_f_253062_1252)">
<ellipse cx="176.5" cy="184.5" rx="16" ry="11.5" fill="#F7B8B5"/>
</g>
<path d="M127.5 178C128.439 180.438 131.5 184.5 138 185C144.5 185.5 147.5 178.5 147.5 178.5" stroke="#4A4A4A" stroke-width="4" stroke-linecap="round"/>
<ellipse cx="100.5" cy="170" rx="4" ry="7" fill="#4A4A4A"/>
<ellipse cx="167.5" cy="169" rx="4" ry="7" fill="#4A4A4A"/>
<defs>
<filter id="filter0_f_253062_1252" x="86.5814" y="75.8809" width="35.8363" height="26.2383" filterUnits="userSpaceOnUse" color-interpolation-filters="sRGB">
<feFlood flood-opacity="0" result="BackgroundImageFix"/>
<feBlend mode="normal" in="SourceGraphic" in2="BackgroundImageFix" result="shape"/>
<feGaussianBlur stdDeviation="0.5" result="effect1_foregroundBlur_253062_1252"/>
</filter>
<filter id="filter1_f_253062_1252" x="170.088" y="91.1335" width="35.8363" height="26.2383" filterUnits="userSpaceOnUse" color-interpolation-filters="sRGB">
<feFlood flood-opacity="0" result="BackgroundImageFix"/>
<feBlend mode="normal" in="SourceGraphic" in2="BackgroundImageFix" result="shape"/>
<feGaussianBlur stdDeviation="0.5" result="effect1_foregroundBlur_253062_1252"/>
</filter>
<filter id="filter2_f_253062_1252" x="74.4995" y="172" width="34" height="25" filterUnits="userSpaceOnUse" color-interpolation-filters="sRGB">
<feFlood flood-opacity="0" result="BackgroundImageFix"/>
<feBlend mode="normal" in="SourceGraphic" in2="BackgroundImageFix" result="shape"/>
<feGaussianBlur stdDeviation="0.5" result="effect1_foregroundBlur_253062_1252"/>
</filter>
<filter id="filter3_f_253062_1252" x="159.5" y="172" width="34" height="25" filterUnits="userSpaceOnUse" color-interpolation-filters="sRGB">
<feFlood flood-opacity="0" result="BackgroundImageFix"/>
<feBlend mode="normal" in="SourceGraphic" in2="BackgroundImageFix" result="shape"/>
<feGaussianBlur stdDeviation="0.5" result="effect1_foregroundBlur_253062_1252"/>
</filter>
</defs>
</svg>
